<svg width="24" height="24" viewBox="0 0 24 24" fill="none" xmlns="http://www.w3.org/2000/svg">
<g clip-path="url(#clip0_1807_2)">
<path fill-rule="evenodd" clip-rule="evenodd" d="M3.44429 2C2.64663 2 2 2.64663 2 3.44429V7.33288H7.33288V2H3.44429ZM2 9.33288H7.33288V14.6657H2V9.33288ZM9.33288 9.33288V14.6657H14.6657V9.33288H9.33288ZM16.6657 9.33288V14.6657H21.9986V9.33288H16.6657ZM14.6657 16.6657H9.33288V21.9986H14.6657V16.6657ZM16.6657 21.9986V16.6657H21.9986V20.5543C21.9986 21.352 21.352 21.9986 20.5543 21.9986H16.6657ZM15.6657 23.9986H8.33288H3.44429C1.54206 23.9986 0 22.4565 0 20.5543V15.6657V8.33288V3.44429C0 1.54206 1.54206 0 3.44429 0H8.33288H15.6657H20.5543C22.4565 0 23.9986 1.54206 23.9986 3.44429V8.33288V15.6657V20.5543C23.9986 22.4565 22.4565 23.9986 20.5543 23.9986H15.6657ZM16.6657 2H20.5543C21.352 2 21.9986 2.64663 21.9986 3.44429V7.33288H16.6657V2ZM14.6657 2V7.33288H9.33288V2H14.6657ZM2 16.6657H7.33288V21.9986H3.44429C2.64663 21.9986 2 21.352 2 20.5543V16.6657Z" fill="white"/>
</g>
<defs>
<clipPath id="clip0_1807_2">
<rect width="24" height="24" fill="white"/>
</clipPath>
</defs>
</svg>
